<svg viewBox="0 0 800 400" xmlns="http://www.w3.org/2000/svg">
  <rect width="800" height="400" fill="#0f172a"/>
  <g stroke="#1e293b" stroke-width="1" opacity="0.6">
    <line x1="60" y1="80" x2="60" y2="360"/>
    <line x1="60" y1="360" x2="760" y2="360"/>
    <line x1="60" y1="280" x2="760" y2="280"/>
    <line x1="60" y1="200" x2="760" y2="200"/>
    <line x1="60" y1="120" x2="760" y2="120"/>
    <line x1="230" y1="80" x2="230" y2="360"/>
    <line x1="400" y1="80" x2="400" y2="360"/>
    <line x1="570" y1="80" x2="570" y2="360"/>
    <line x1="740" y1="80" x2="740" y2="360"/>
  </g>
  <g fill="#f59e0b" opacity="0.85">
    <circle cx="78" cy="328" r="4"/>
    <circle cx="108" cy="342" r="3.5"/>
    <circle cx="135" cy="308" r="4"/>
    <circle cx="162" cy="318" r="3.5"/>
    <circle cx="192" cy="295" r="4"/>
    <circle cx="218" cy="308" r="3.5"/>
    <circle cx="248" cy="275" r="4"/>
    <circle cx="275" cy="285" r="3.5"/>
    <circle cx="305" cy="260" r="4"/>
    <circle cx="332" cy="268" r="3.5"/>
    <circle cx="362" cy="244" r="4"/>
    <circle cx="392" cy="232" r="3.5"/>
    <circle cx="420" cy="218" r="4"/>
    <circle cx="450" cy="230" r="3.5"/>
    <circle cx="478" cy="202" r="4"/>
    <circle cx="508" cy="190" r="3.5"/>
    <circle cx="535" cy="205" r="4"/>
    <circle cx="562" cy="178" r="3.5"/>
    <circle cx="592" cy="162" r="4"/>
    <circle cx="620" cy="150" r="3.5"/>
    <circle cx="650" cy="162" r="4"/>
    <circle cx="678" cy="138" r="3.5"/>
    <circle cx="708" cy="122" r="4"/>
    <circle cx="742" cy="110" r="3.5"/>
  </g>
  <path d="M 68 336 C 280 308, 520 210, 752 102" fill="none" stroke="#fde68a" stroke-width="2.5" stroke-linecap="round"/>
  <g fill="#fde68a" opacity="0.5">
    <circle cx="68" cy="336" r="4"/>
    <circle cx="752" cy="102" r="4"/>
  </g>
</svg>
