<svg viewBox="0 0 800 400" xmlns="http://www.w3.org/2000/svg">
  <rect width="800" height="400" fill="#0f172a"/>
  <g stroke="#1e293b" stroke-width="1" opacity="0.6">
    <line x1="0" y1="100" x2="800" y2="100"/>
    <line x1="0" y1="200" x2="800" y2="200"/>
    <line x1="0" y1="300" x2="800" y2="300"/>
    <line x1="200" y1="0" x2="200" y2="400"/>
    <line x1="400" y1="0" x2="400" y2="400"/>
    <line x1="600" y1="0" x2="600" y2="400"/>
  </g>
  <g fill="#60a5fa">
    <circle cx="118" cy="132" r="3.5" opacity="0.9"/>
    <circle cx="138" cy="118" r="2.5" opacity="0.85"/>
    <circle cx="152" cy="130" r="4" opacity="0.9"/>
    <circle cx="145" cy="148" r="3" opacity="0.8"/>
    <circle cx="165" cy="110" r="2.5" opacity="0.85"/>
    <circle cx="178" cy="128" r="3.5" opacity="0.9"/>
    <circle cx="172" cy="145" r="3" opacity="0.85"/>
    <circle cx="158" cy="162" r="4" opacity="0.9"/>
    <circle cx="140" cy="158" r="2.5" opacity="0.8"/>
    <circle cx="163" cy="170" r="3" opacity="0.85"/>
    <circle cx="182" cy="155" r="3.5" opacity="0.9"/>
    <circle cx="193" cy="138" r="2.5" opacity="0.85"/>
    <circle cx="180" cy="110" r="3" opacity="0.8"/>
    <circle cx="130" cy="170" r="4" opacity="0.9"/>
    <circle cx="148" cy="108" r="2.5" opacity="0.85"/>
    <circle cx="168" cy="180" r="3.5" opacity="0.9"/>
    <circle cx="190" cy="170" r="3" opacity="0.85"/>
    <circle cx="202" cy="150" r="2.5" opacity="0.8"/>
    <circle cx="125" cy="145" r="3.5" opacity="0.85"/>
    <circle cx="155" cy="142" r="2.5" opacity="0.9"/>
  </g>
  <g fill="#34d399">
    <circle cx="382" cy="242" r="3.5" opacity="0.9"/>
    <circle cx="398" cy="228" r="2.5" opacity="0.85"/>
    <circle cx="415" cy="238" r="4" opacity="0.9"/>
    <circle cx="430" cy="222" r="3" opacity="0.8"/>
    <circle cx="445" cy="238" r="2.5" opacity="0.85"/>
    <circle cx="458" cy="252" r="3.5" opacity="0.9"/>
    <circle cx="448" cy="268" r="3" opacity="0.85"/>
    <circle cx="432" cy="278" r="4" opacity="0.9"/>
    <circle cx="415" cy="272" r="2.5" opacity="0.8"/>
    <circle cx="398" cy="262" r="3" opacity="0.85"/>
    <circle cx="382" cy="268" r="3.5" opacity="0.9"/>
    <circle cx="395" cy="278" r="2.5" opacity="0.85"/>
    <circle cx="410" cy="262" r="3" opacity="0.8"/>
    <circle cx="428" cy="252" r="4" opacity="0.9"/>
    <circle cx="445" cy="268" r="2.5" opacity="0.85"/>
    <circle cx="462" cy="258" r="3.5" opacity="0.9"/>
    <circle cx="470" cy="242" r="3" opacity="0.85"/>
    <circle cx="438" cy="244" r="2.5" opacity="0.8"/>
    <circle cx="416" cy="250" r="3.5" opacity="0.9"/>
    <circle cx="400" cy="248" r="2.5" opacity="0.85"/>
  </g>
  <g fill="#a78bfa">
    <circle cx="568" cy="122" r="3.5" opacity="0.9"/>
    <circle cx="582" cy="108" r="2.5" opacity="0.85"/>
    <circle cx="598" cy="118" r="4" opacity="0.9"/>
    <circle cx="612" cy="105" r="3" opacity="0.8"/>
    <circle cx="628" cy="122" r="2.5" opacity="0.85"/>
    <circle cx="640" cy="138" r="3.5" opacity="0.9"/>
    <circle cx="632" cy="155" r="3" opacity="0.85"/>
    <circle cx="618" cy="165" r="4" opacity="0.9"/>
    <circle cx="600" cy="160" r="2.5" opacity="0.8"/>
    <circle cx="580" cy="150" r="3" opacity="0.85"/>
    <circle cx="565" cy="140" r="3.5" opacity="0.9"/>
    <circle cx="578" cy="158" r="2.5" opacity="0.85"/>
    <circle cx="595" cy="142" r="3" opacity="0.8"/>
    <circle cx="614" cy="148" r="4" opacity="0.9"/>
    <circle cx="630" cy="132" r="2.5" opacity="0.85"/>
    <circle cx="642" cy="118" r="3.5" opacity="0.9"/>
    <circle cx="650" cy="152" r="3" opacity="0.85"/>
    <circle cx="580" cy="138" r="2.5" opacity="0.8"/>
    <circle cx="600" cy="132" r="3.5" opacity="0.9"/>
    <circle cx="620" cy="162" r="2.5" opacity="0.85"/>
  </g>
  <g fill="#60a5fa" opacity="0.65">
    <circle cx="278" cy="305" r="2.5"/>
    <circle cx="295" cy="295" r="3"/>
    <circle cx="312" cy="302" r="2.5"/>
    <circle cx="328" cy="318" r="3"/>
    <circle cx="320" cy="332" r="2.5"/>
    <circle cx="305" cy="340" r="3"/>
    <circle cx="290" cy="335" r="2"/>
    <circle cx="278" cy="322" r="2.5"/>
  </g>
  <g fill="#fb923c">
    <circle cx="50" cy="50" r="4" opacity="0.9"/>
    <circle cx="742" cy="40" r="3.5" opacity="0.85"/>
    <circle cx="95" cy="375" r="4" opacity="0.9"/>
    <circle cx="728" cy="368" r="3.5" opacity="0.85"/>
    <circle cx="355" cy="28" r="4" opacity="0.9"/>
    <circle cx="42" cy="212" r="3.5" opacity="0.85"/>
    <circle cx="760" cy="198" r="4" opacity="0.9"/>
    <circle cx="258" cy="52" r="3.5" opacity="0.85"/>
    <circle cx="508" cy="385" r="4" opacity="0.9"/>
    <circle cx="658" cy="380" r="3.5" opacity="0.85"/>
    <circle cx="378" cy="370" r="4" opacity="0.9"/>
    <circle cx="722" cy="295" r="3.5" opacity="0.85"/>
    <circle cx="48" cy="118" r="4" opacity="0.9"/>
    <circle cx="708" cy="95" r="3.5" opacity="0.85"/>
  </g>
</svg>
